<svg width="74" height="80" viewBox="0 0 74 80" fill="none" xmlns="http://www.w3.org/2000/svg">
<g clip-path="url(#clip0_1_199)">
<path d="M36.9642 0.131592C16.6114 0.131592 0.111328 17.969 0.111328 39.9721C0.111328 61.9762 16.6114 79.8121 36.9642 79.8121C57.3193 79.8121 73.8176 61.9762 73.8176 39.9721C73.8176 17.9704 57.3198 0.131592 36.9642 0.131592ZM53.8647 57.593C53.2046 58.7634 51.7876 59.1345 50.705 58.4161C42.0523 52.7023 31.1597 51.4083 18.3316 54.5768C17.0954 54.8813 15.8633 54.0439 15.5816 52.7071C15.2986 51.3702 16.0701 50.0381 17.3093 49.7336C31.3476 46.2663 43.3893 47.7592 53.1034 54.1771C54.186 54.8955 54.5293 56.4227 53.8647 57.593ZM58.3755 46.7449C57.5437 48.2064 55.7747 48.6679 54.4236 47.7687C44.5176 41.1862 29.4175 39.2799 17.7005 43.1249C16.181 43.6211 14.576 42.6953 14.1148 41.0554C13.6572 39.4126 14.514 37.6809 16.0309 37.1813C29.4148 32.7911 46.0535 34.9177 57.4293 42.475C58.7803 43.3742 59.2072 45.2863 58.3755 46.7449ZM58.7627 35.4486C46.8852 27.8218 27.2888 27.1206 15.9486 30.8415C14.1276 31.4385 12.2019 30.3272 11.65 28.3585C11.0982 26.3889 12.1253 24.3084 13.9476 23.7099C26.9654 19.4377 48.6059 20.2631 62.2807 29.0393C63.9221 30.0902 64.459 32.3772 63.4865 34.1456C62.5183 35.9163 60.3954 36.5001 58.7627 35.4486Z" fill="#F5F5F5"/>
</g>
<defs>
<clipPath id="clip0_1_199">
<rect width="74" height="80" fill="white"/>
</clipPath>
</defs>
</svg>
