<svg width="801" height="71" viewBox="0 0 801 71" fill="none" xmlns="http://www.w3.org/2000/svg">
<path d="M52.3683 69L47.3681 56.3631H22.4578L17.7303 69H0.820445L27.8217 4.63338H42.9133L69.6418 69H52.3683ZM35.0948 21.816L26.9126 43.9079H43.0951L35.0948 21.816ZM101.612 69H85.5204L67.7014 23.7252H84.1567L93.7026 53.0902H93.9753L103.521 23.7252H119.431L101.612 69ZM156.377 41.1805C156.377 38.8168 155.619 36.7864 154.104 35.0893C152.649 33.3923 150.437 32.5438 147.467 32.5438C146.013 32.5438 144.679 32.7862 143.467 33.2711C142.255 33.6953 141.194 34.3014 140.285 35.0893C139.376 35.8773 138.649 36.8167 138.103 37.9077C137.558 38.938 137.255 40.029 137.194 41.1805H156.377ZM170.105 46.9081C170.105 47.5142 170.105 48.1202 170.105 48.7263C170.105 49.3324 170.074 49.9082 170.014 50.4537H137.194C137.315 51.7265 137.679 52.878 138.285 53.9084C138.952 54.9387 139.77 55.8479 140.74 56.6358C141.77 57.3631 142.891 57.9389 144.103 58.3631C145.376 58.7874 146.679 58.9995 148.013 58.9995C150.376 58.9995 152.376 58.5753 154.013 57.7268C155.649 56.8176 156.983 55.666 158.013 54.272L168.377 60.8178C166.256 63.9089 163.438 66.3029 159.922 68C156.468 69.6364 152.437 70.4546 147.831 70.4546C144.437 70.4546 141.224 69.9394 138.194 68.9091C135.164 67.8181 132.497 66.2726 130.194 64.2725C127.951 62.2118 126.163 59.6965 124.83 56.7267C123.557 53.7569 122.921 50.3628 122.921 46.5444C122.921 42.8473 123.557 39.5138 124.83 36.5439C126.103 33.5135 127.83 30.9679 130.012 28.9072C132.194 26.7859 134.77 25.1495 137.739 23.9979C140.709 22.8463 143.922 22.2706 147.376 22.2706C150.71 22.2706 153.77 22.8463 156.558 23.9979C159.346 25.0889 161.741 26.695 163.741 28.8163C165.741 30.9376 167.286 33.5135 168.377 36.5439C169.529 39.5744 170.105 43.0291 170.105 46.9081ZM209.079 69V44.2716C209.079 42.9988 208.958 41.7866 208.716 40.635C208.534 39.4835 208.201 38.4834 207.716 37.6349C207.231 36.7258 206.534 36.0288 205.625 35.5439C204.776 34.9984 203.685 34.7257 202.352 34.7257C201.018 34.7257 199.837 34.9984 198.806 35.5439C197.836 36.0288 197.018 36.7258 196.352 37.6349C195.685 38.544 195.17 39.6047 194.806 40.8169C194.503 41.9684 194.351 43.1806 194.351 44.4534V69H179.351V23.7252H193.806V29.9982H193.988C194.533 29.0285 195.23 28.089 196.079 27.1799C196.988 26.2101 198.018 25.3919 199.17 24.7252C200.382 24.0585 201.685 23.513 203.079 23.0888C204.473 22.6645 205.958 22.4524 207.534 22.4524C210.564 22.4524 213.14 22.9979 215.261 24.0888C217.383 25.1798 219.08 26.6041 220.353 28.3618C221.686 30.0588 222.625 32.0286 223.171 34.2711C223.777 36.5136 224.08 38.7562 224.08 40.9987V69H209.079ZM251.555 9.26996C251.555 10.4215 251.313 11.5125 250.828 12.5428C250.403 13.5126 249.797 14.3611 249.009 15.0884C248.282 15.8157 247.373 16.3915 246.282 16.8158C245.252 17.24 244.161 17.4522 243.009 17.4522C240.585 17.4522 238.554 16.6642 236.918 15.0884C235.282 13.452 234.463 11.5125 234.463 9.26996C234.463 8.179 234.675 7.14865 235.1 6.17891C235.524 5.14856 236.13 4.26973 236.918 3.54242C237.706 2.81511 238.615 2.23933 239.645 1.81507C240.676 1.3302 241.797 1.08776 243.009 1.08776C244.161 1.08776 245.252 1.29989 246.282 1.72416C247.373 2.14842 248.282 2.7242 249.009 3.45151C249.797 4.17881 250.403 5.05764 250.828 6.08799C251.313 7.05773 251.555 8.11839 251.555 9.26996ZM235.554 69V23.7252H250.464V69H235.554ZM291.639 35.9076C290.972 35.7257 290.305 35.6045 289.638 35.5439C289.032 35.4833 288.426 35.453 287.82 35.453C285.82 35.453 284.123 35.8166 282.729 36.5439C281.396 37.2713 280.305 38.1501 279.456 39.1804C278.668 40.2108 278.093 41.3321 277.729 42.5442C277.365 43.7564 277.183 44.8171 277.183 45.7262V69H262.274V23.7252H276.638V30.2709H276.82C277.971 27.9678 279.608 26.0889 281.729 24.6343C283.85 23.1797 286.305 22.4524 289.093 22.4524C289.699 22.4524 290.275 22.4827 290.82 22.5433C291.426 22.6039 291.911 22.6948 292.275 22.816L291.639 35.9076ZM362.777 69L336.867 26.9071H336.594L336.957 69H321.866V4.63338H339.594L365.413 46.6353H365.686L365.322 4.63338H380.414V69H362.777ZM424.056 41.1805C424.056 38.8168 423.298 36.7864 421.783 35.0893C420.328 33.3923 418.116 32.5438 415.146 32.5438C413.692 32.5438 412.358 32.7862 411.146 33.2711C409.934 33.6953 408.873 34.3014 407.964 35.0893C407.055 35.8773 406.328 36.8167 405.782 37.9077C405.237 38.938 404.934 40.029 404.873 41.1805H424.056ZM437.784 46.9081C437.784 47.5142 437.784 48.1202 437.784 48.7263C437.784 49.3324 437.754 49.9082 437.693 50.4537H404.873C404.994 51.7265 405.358 52.878 405.964 53.9084C406.631 54.9387 407.449 55.8479 408.419 56.6358C409.449 57.3631 410.57 57.9389 411.783 58.3631C413.055 58.7874 414.359 58.9995 415.692 58.9995C418.056 58.9995 420.056 58.5753 421.692 57.7268C423.329 56.8176 424.662 55.666 425.692 54.272L436.057 60.8178C433.935 63.9089 431.117 66.3029 427.602 68C424.147 69.6364 420.116 70.4546 415.51 70.4546C412.116 70.4546 408.904 69.9394 405.873 68.9091C402.843 67.8181 400.176 66.2726 397.873 64.2725C395.63 62.2118 393.842 59.6965 392.509 56.7267C391.236 53.7569 390.6 50.3628 390.6 46.5444C390.6 42.8473 391.236 39.5138 392.509 36.5439C393.782 33.5135 395.509 30.9679 397.691 28.9072C399.873 26.7859 402.449 25.1495 405.419 23.9979C408.389 22.8463 411.601 22.2706 415.056 22.2706C418.389 22.2706 421.45 22.8463 424.238 23.9979C427.026 25.0889 429.42 26.695 431.42 28.8163C433.42 30.9376 434.966 33.5135 436.057 36.5439C437.208 39.5744 437.784 43.0291 437.784 46.9081ZM475.899 69L466.171 55.0903L456.17 69H438.897L456.989 45.2716L440.624 23.7252H457.989L466.444 35.8166L474.989 23.7252H491.808L475.535 45.2716L493.445 69H475.899ZM515.15 34.9075V52.181C515.15 54.3023 515.544 55.9085 516.332 56.9994C517.181 58.0298 518.666 58.545 520.787 58.545C521.514 58.545 522.272 58.4844 523.06 58.3631C523.908 58.2419 524.605 58.0601 525.151 57.8177L525.333 68.7273C524.302 69.0909 522.999 69.394 521.423 69.6364C519.848 69.9394 518.272 70.091 516.696 70.091C513.665 70.091 511.12 69.7273 509.059 69C506.998 68.2121 505.332 67.1211 504.059 65.7271C502.847 64.2725 501.968 62.5755 501.422 60.636C500.877 58.6359 500.604 56.4237 500.604 53.9993V34.9075H493.331V23.7252H500.513V11.8155H515.15V23.7252H525.787V34.9075H515.15ZM552.977 51.0901V39.2713H576.069V51.0901H552.977ZM658.906 50.2719C658.906 53.7872 658.209 56.757 656.815 59.1814C655.421 61.5451 653.573 63.4543 651.27 64.9089C648.966 66.3635 646.33 67.4242 643.36 68.0909C640.451 68.697 637.451 69 634.36 69H608.722V4.63338H634.36C636.845 4.63338 639.39 4.90612 641.996 5.4516C644.603 5.93647 646.966 6.8153 649.088 8.08809C651.209 9.30026 652.936 10.967 654.27 13.0883C655.603 15.2096 656.27 17.9067 656.27 21.1796C656.27 24.7555 655.3 27.7254 653.361 30.0891C651.421 32.3922 648.875 34.059 645.724 35.0893V35.2712C647.542 35.5742 649.239 36.15 650.815 36.9985C652.451 37.7864 653.845 38.8168 654.997 40.0896C656.209 41.3624 657.149 42.8473 657.815 44.5443C658.543 46.2414 658.906 48.1505 658.906 50.2719ZM641.269 23.2706C641.269 21.0887 640.421 19.5129 638.724 18.5431C637.087 17.5128 634.632 16.9976 631.36 16.9976H623.723V30.2709H632.087C634.996 30.2709 637.239 29.6951 638.814 28.5436C640.451 27.3314 641.269 25.5737 641.269 23.2706ZM643.36 48.8172C643.36 46.1505 642.36 44.3019 640.36 43.2715C638.36 42.2412 635.693 41.726 632.36 41.726H623.723V56.454H632.45C633.663 56.454 634.905 56.3631 636.178 56.1812C637.511 55.9388 638.693 55.5448 639.724 54.9994C640.815 54.4539 641.693 53.6963 642.36 52.7265C643.027 51.6962 643.36 50.3931 643.36 48.8172ZM716.367 46.1808C716.367 49.8779 715.7 53.2417 714.367 56.2721C713.034 59.242 711.215 61.7875 708.912 63.9089C706.609 65.9696 703.942 67.5757 700.912 68.7273C697.881 69.8788 694.639 70.4546 691.184 70.4546C687.79 70.4546 684.547 69.8788 681.456 68.7273C678.426 67.5757 675.759 65.9696 673.456 63.9089C671.213 61.7875 669.425 59.242 668.092 56.2721C666.759 53.2417 666.092 49.8779 666.092 46.1808C666.092 42.4836 666.759 39.1501 668.092 36.1803C669.425 33.2105 671.213 30.6952 673.456 28.6345C675.759 26.5738 678.426 24.998 681.456 23.907C684.547 22.816 687.79 22.2706 691.184 22.2706C694.639 22.2706 697.881 22.816 700.912 23.907C703.942 24.998 706.609 26.5738 708.912 28.6345C711.215 30.6952 713.034 33.2105 714.367 36.1803C715.7 39.1501 716.367 42.4836 716.367 46.1808ZM702.003 46.1808C702.003 44.7261 701.76 43.3018 701.275 41.9078C700.791 40.5138 700.094 39.3017 699.184 38.2713C698.275 37.1803 697.154 36.3015 695.821 35.6348C694.487 34.9681 692.942 34.6348 691.184 34.6348C689.426 34.6348 687.881 34.9681 686.547 35.6348C685.214 36.3015 684.093 37.1803 683.184 38.2713C682.335 39.3017 681.668 40.5138 681.184 41.9078C680.759 43.3018 680.547 44.7261 680.547 46.1808C680.547 47.6354 680.759 49.0597 681.184 50.4537C681.668 51.8477 682.365 53.1205 683.275 54.272C684.184 55.363 685.305 56.2418 686.638 56.9085C687.972 57.5752 689.517 57.9086 691.275 57.9086C693.033 57.9086 694.578 57.5752 695.912 56.9085C697.245 56.2418 698.366 55.363 699.275 54.272C700.184 53.1205 700.851 51.8477 701.275 50.4537C701.76 49.0597 702.003 47.6354 702.003 46.1808ZM725.989 69V0.269542H741.081V69H725.989ZM787.16 69V63.0906H786.978C785.524 65.3938 783.433 67.1817 780.705 68.4545C778.039 69.6667 775.19 70.2728 772.159 70.2728C768.765 70.2728 765.735 69.6061 763.068 68.2727C760.401 66.9393 758.129 65.1816 756.25 62.9997C754.431 60.7572 753.037 58.1813 752.068 55.2721C751.098 52.3629 750.613 49.3324 750.613 46.1808C750.613 43.0291 751.098 40.029 752.068 37.1803C753.098 34.2711 754.522 31.7255 756.341 29.5436C758.219 27.3617 760.462 25.6344 763.068 24.3616C765.735 23.0888 768.705 22.4524 771.978 22.4524C775.311 22.4524 778.129 23.0888 780.433 24.3616C782.736 25.6344 784.524 27.0284 785.796 28.5436H785.978V0.269542H800.888V69H787.16ZM786.615 46.2717C786.615 44.8171 786.342 43.3928 785.796 41.9987C785.312 40.6047 784.584 39.3623 783.615 38.2713C782.705 37.1803 781.584 36.3015 780.251 35.6348C778.917 34.9681 777.402 34.6348 775.705 34.6348C773.947 34.6348 772.402 34.9681 771.068 35.6348C769.735 36.3015 768.614 37.1803 767.705 38.2713C766.796 39.3017 766.099 40.5138 765.614 41.9078C765.189 43.3018 764.977 44.7261 764.977 46.1808C764.977 47.6354 765.189 49.09 765.614 50.5446C766.099 51.9386 766.796 53.1811 767.705 54.272C768.614 55.363 769.735 56.2418 771.068 56.9085C772.402 57.5752 773.947 57.9086 775.705 57.9086C777.402 57.9086 778.917 57.5752 780.251 56.9085C781.584 56.2418 782.705 55.363 783.615 54.272C784.584 53.1811 785.312 51.9386 785.796 50.5446C786.342 49.1506 786.615 47.7263 786.615 46.2717Z" fill="black"/>
</svg>
