<svg width="909" height="71" viewBox="0 0 909 71" fill="none" xmlns="http://www.w3.org/2000/svg">
<path d="M10.1924 69H0.191902L28.1023 4.63338H36.2845L63.9221 69H53.7398L47.1941 53.1811H16.6472L10.1924 69ZM19.8292 45.2716H43.9212L31.9206 15.0884L19.8292 45.2716ZM91.476 69H82.2028L64.6565 25.9071H74.1115L86.7485 59.8178H86.9303L99.6582 25.9071H108.749L91.476 69ZM148.561 43.6352C148.5 41.9381 148.197 40.3623 147.652 38.9077C147.167 37.3925 146.409 36.0894 145.379 34.9984C144.409 33.9075 143.167 33.0589 141.652 32.4529C140.197 31.7862 138.47 31.4528 136.47 31.4528C134.651 31.4528 132.924 31.7862 131.287 32.4529C129.712 33.0589 128.318 33.9075 127.105 34.9984C125.954 36.0894 124.984 37.3925 124.196 38.9077C123.469 40.3623 123.045 41.9381 122.923 43.6352H148.561ZM157.198 47.0899C157.198 47.5748 157.198 48.0596 157.198 48.5445C157.198 49.0294 157.167 49.5142 157.107 49.9991H122.923C122.984 51.8174 123.378 53.5447 124.105 55.1812C124.893 56.757 125.924 58.151 127.196 59.3632C128.469 60.5148 129.924 61.4239 131.56 62.0906C133.257 62.7573 135.045 63.0906 136.924 63.0906C139.833 63.0906 142.349 62.4542 144.47 61.1815C146.591 59.9087 148.258 58.3631 149.47 56.5449L155.47 61.3633C153.167 64.3937 150.44 66.6363 147.288 68.0909C144.197 69.4849 140.742 70.1819 136.924 70.1819C133.651 70.1819 130.621 69.6364 127.833 68.5454C125.045 67.4545 122.651 65.9393 120.651 63.9998C118.651 61.9997 117.075 59.6056 115.923 56.8176C114.772 54.0296 114.196 50.9386 114.196 47.5445C114.196 44.211 114.741 41.1502 115.832 38.3622C116.984 35.5136 118.56 33.0892 120.56 31.0892C122.56 29.0891 124.924 27.5435 127.651 26.4526C130.378 25.301 133.318 24.7252 136.47 24.7252C139.621 24.7252 142.47 25.2404 145.015 26.2707C147.622 27.3011 149.803 28.786 151.561 30.7255C153.379 32.665 154.773 35.0287 155.743 37.8167C156.713 40.5441 157.198 43.6352 157.198 47.0899ZM176.857 25.9071C176.978 26.9981 177.069 28.2405 177.13 29.6345C177.19 30.9679 177.221 32.0892 177.221 32.9983H177.493C178.039 31.8468 178.766 30.7861 179.675 29.8164C180.645 28.786 181.736 27.9072 182.948 27.1799C184.16 26.392 185.494 25.7859 186.948 25.3616C188.403 24.9374 189.918 24.7252 191.494 24.7252C194.282 24.7252 196.676 25.2101 198.676 26.1798C200.676 27.089 202.343 28.3314 203.676 29.9073C205.01 31.4831 205.98 33.3317 206.586 35.453C207.252 37.5743 207.586 39.8471 207.586 42.2715V69H199.04V45.0898C199.04 43.3321 198.888 41.6654 198.585 40.0896C198.343 38.5137 197.858 37.1197 197.131 35.9076C196.403 34.6954 195.403 33.7256 194.131 32.9983C192.858 32.271 191.221 31.9074 189.221 31.9074C185.827 31.9074 183.039 33.2105 180.857 35.8166C178.736 38.3622 177.675 41.7866 177.675 46.0898V69H169.129V35.1803C169.129 34.0287 169.099 32.5438 169.038 30.7255C168.978 28.9072 168.887 27.3011 168.766 25.9071H176.857ZM230.681 69H222.135V25.9071H230.681V69ZM232.135 10.3609C232.135 11.9368 231.559 13.2398 230.408 14.2702C229.317 15.3005 227.983 15.8157 226.408 15.8157C224.832 15.8157 223.498 15.3005 222.407 14.2702C221.316 13.1792 220.771 11.8761 220.771 10.3609C220.771 8.78509 221.316 7.482 222.407 6.45165C223.498 5.36069 224.832 4.81521 226.408 4.81521C227.983 4.81521 229.317 5.36069 230.408 6.45165C231.559 7.482 232.135 8.78509 232.135 10.3609ZM245.571 35.1803C245.571 34.0287 245.541 32.5438 245.48 30.7255C245.42 28.9072 245.329 27.3011 245.208 25.9071H253.299C253.42 26.9981 253.511 28.2708 253.572 29.7255C253.632 31.1195 253.662 32.271 253.662 33.1802H253.935C255.147 30.6346 256.905 28.6042 259.208 27.089C261.572 25.5131 264.208 24.7252 267.118 24.7252C268.451 24.7252 269.572 24.8464 270.481 25.0889L270.118 32.9983C268.906 32.6953 267.602 32.5438 266.208 32.5438C264.148 32.5438 262.36 32.9377 260.845 33.7256C259.329 34.4529 258.057 35.453 257.026 36.7258C256.056 37.9986 255.329 39.4835 254.844 41.1805C254.359 42.817 254.117 44.5443 254.117 46.3626V69H245.571V35.1803ZM347.058 56.0903H347.24V4.63338H356.24V69H344.876L310.875 16.4521H310.693V69H301.692V4.63338H313.42L347.058 56.0903ZM403.012 43.6352C402.951 41.9381 402.648 40.3623 402.103 38.9077C401.618 37.3925 400.86 36.0894 399.83 34.9984C398.86 33.9075 397.618 33.0589 396.102 32.4529C394.648 31.7862 392.92 31.4528 390.92 31.4528C389.102 31.4528 387.375 31.7862 385.738 32.4529C384.162 33.0589 382.768 33.9075 381.556 34.9984C380.405 36.0894 379.435 37.3925 378.647 38.9077C377.92 40.3623 377.495 41.9381 377.374 43.6352H403.012ZM411.648 47.0899C411.648 47.5748 411.648 48.0596 411.648 48.5445C411.648 49.0294 411.618 49.5142 411.558 49.9991H377.374C377.435 51.8174 377.829 53.5447 378.556 55.1812C379.344 56.757 380.374 58.151 381.647 59.3632C382.92 60.5148 384.374 61.4239 386.011 62.0906C387.708 62.7573 389.496 63.0906 391.375 63.0906C394.284 63.0906 396.799 62.4542 398.921 61.1815C401.042 59.9087 402.709 58.3631 403.921 56.5449L409.921 61.3633C407.618 64.3937 404.891 66.6363 401.739 68.0909C398.648 69.4849 395.193 70.1819 391.375 70.1819C388.102 70.1819 385.071 69.6364 382.283 68.5454C379.495 67.4545 377.101 65.9393 375.101 63.9998C373.101 61.9997 371.525 59.6056 370.374 56.8176C369.222 54.0296 368.646 50.9386 368.646 47.5445C368.646 44.211 369.192 41.1502 370.283 38.3622C371.434 35.5136 373.01 33.0892 375.01 31.0892C377.01 29.0891 379.374 27.5435 382.102 26.4526C384.829 25.301 387.769 24.7252 390.92 24.7252C394.072 24.7252 396.921 25.2404 399.466 26.2707C402.072 27.3011 404.254 28.786 406.012 30.7255C407.83 32.665 409.224 35.0287 410.194 37.8167C411.164 40.5441 411.648 43.6352 411.648 47.0899ZM433.238 46.3626L417.51 25.9071H428.056L438.602 40.726L449.239 25.9071H459.239L443.693 46.2717L461.058 69H450.421L438.42 52.181L426.238 69H415.965L433.238 46.3626ZM490.217 32.9074H478.762V55.363C478.762 57.9692 479.247 59.8481 480.217 60.9996C481.187 62.0906 482.732 62.6361 484.854 62.6361C485.641 62.6361 486.49 62.5452 487.399 62.3633C488.308 62.1815 489.127 61.9088 489.854 61.5451L490.127 68.5454C489.096 68.9091 487.945 69.1818 486.672 69.3637C485.46 69.6061 484.187 69.7273 482.853 69.7273C478.793 69.7273 475.671 68.606 473.489 66.3635C471.368 64.121 470.307 60.7572 470.307 56.2721V32.9074H462.034V25.9071H470.307V13.5429H478.762V25.9071H490.217V32.9074ZM539.502 50.4537H518.41V43.1806H539.502V50.4537ZM607.351 54.0902H607.533L626.534 4.63338H640.535V69H631.534V15.1793H631.352L609.988 69H604.26L582.987 15.1793H582.805V69H574.077V4.63338H588.078L607.351 54.0902ZM687.293 43.6352C687.233 41.9381 686.93 40.3623 686.384 38.9077C685.899 37.3925 685.142 36.0894 684.111 34.9984C683.142 33.9075 681.899 33.0589 680.384 32.4529C678.929 31.7862 677.202 31.4528 675.202 31.4528C673.384 31.4528 671.656 31.7862 670.02 32.4529C668.444 33.0589 667.05 33.9075 665.838 34.9984C664.686 36.0894 663.716 37.3925 662.929 38.9077C662.201 40.3623 661.777 41.9381 661.656 43.6352H687.293ZM695.93 47.0899C695.93 47.5748 695.93 48.0596 695.93 48.5445C695.93 49.0294 695.9 49.5142 695.839 49.9991H661.656C661.716 51.8174 662.11 53.5447 662.838 55.1812C663.626 56.757 664.656 58.151 665.929 59.3632C667.202 60.5148 668.656 61.4239 670.293 62.0906C671.99 62.7573 673.778 63.0906 675.656 63.0906C678.566 63.0906 681.081 62.4542 683.202 61.1815C685.324 59.9087 686.99 58.3631 688.202 56.5449L694.203 61.3633C691.9 64.3937 689.172 66.6363 686.021 68.0909C682.93 69.4849 679.475 70.1819 675.656 70.1819C672.384 70.1819 669.353 69.6364 666.565 68.5454C663.777 67.4545 661.383 65.9393 659.383 63.9998C657.383 61.9997 655.807 59.6056 654.655 56.8176C653.504 54.0296 652.928 50.9386 652.928 47.5445C652.928 44.211 653.474 41.1502 654.565 38.3622C655.716 35.5136 657.292 33.0892 659.292 31.0892C661.292 29.0891 663.656 27.5435 666.383 26.4526C669.111 25.301 672.05 24.7252 675.202 24.7252C678.354 24.7252 681.202 25.2404 683.748 26.2707C686.354 27.3011 688.536 28.786 690.293 30.7255C692.112 32.665 693.506 35.0287 694.475 37.8167C695.445 40.5441 695.93 43.6352 695.93 47.0899ZM742.227 62.1815C740.591 64.7877 738.348 66.7878 735.499 68.1818C732.711 69.5152 729.772 70.1819 726.681 70.1819C723.347 70.1819 720.347 69.6061 717.68 68.4545C715.014 67.2423 712.741 65.6059 710.862 63.5452C708.983 61.4845 707.528 59.0601 706.498 56.2721C705.468 53.4841 704.953 50.5143 704.953 47.3626C704.953 44.211 705.468 41.2714 706.498 38.544C707.528 35.756 708.983 33.3317 710.862 31.271C712.801 29.2103 715.105 27.6041 717.771 26.4526C720.438 25.301 723.378 24.7252 726.59 24.7252C730.105 24.7252 733.166 25.4828 735.772 26.9981C738.378 28.4527 740.439 30.2406 741.954 32.3619H742.136V0.269542H750.682V69H742.409V62.1815H742.227ZM713.862 47.3626C713.862 49.3627 714.165 51.3022 714.771 53.1811C715.377 55.06 716.286 56.7267 717.499 58.1813C718.711 59.6359 720.196 60.8178 721.953 61.7269C723.711 62.5755 725.772 62.9997 728.135 62.9997C730.317 62.9997 732.287 62.5755 734.045 61.7269C735.863 60.8784 737.409 59.7571 738.681 58.3631C739.954 56.9085 740.924 55.2418 741.591 53.3629C742.318 51.484 742.682 49.5142 742.682 47.4535C742.682 45.3928 742.318 43.4231 741.591 41.5442C740.924 39.6653 739.954 37.9986 738.681 36.5439C737.409 35.0893 735.863 33.9378 734.045 33.0892C732.287 32.2407 730.317 31.8165 728.135 31.8165C725.772 31.8165 723.711 32.2407 721.953 33.0892C720.196 33.9378 718.711 35.0893 717.499 36.5439C716.286 37.9986 715.377 39.6653 714.771 41.5442C714.165 43.4231 713.862 45.3625 713.862 47.3626ZM774.207 69H765.661V25.9071H774.207V69ZM775.662 10.3609C775.662 11.9368 775.086 13.2398 773.934 14.2702C772.843 15.3005 771.51 15.8157 769.934 15.8157C768.358 15.8157 767.025 15.3005 765.934 14.2702C764.843 13.1792 764.298 11.8761 764.298 10.3609C764.298 8.78509 764.843 7.482 765.934 6.45165C767.025 5.36069 768.358 4.81521 769.934 4.81521C771.51 4.81521 772.843 5.36069 773.934 6.45165C775.086 7.482 775.662 8.78509 775.662 10.3609ZM819.463 69C819.342 67.909 819.251 66.6969 819.19 65.3635C819.129 63.9695 819.099 62.8179 819.099 61.9088H818.917C817.826 64.2119 815.978 66.1817 813.372 67.8181C810.826 69.394 807.977 70.1819 804.826 70.1819C802.038 70.1819 799.613 69.7273 797.553 68.8182C795.553 67.909 793.886 66.6666 792.552 65.0907C791.28 63.4543 790.31 61.5754 789.643 59.4541C789.037 57.3328 788.734 55.06 788.734 52.6356V25.9071H797.28V49.7264C797.28 51.484 797.401 53.1811 797.644 54.8175C797.947 56.3934 798.462 57.7874 799.189 58.9995C799.916 60.2117 800.916 61.1815 802.189 61.9088C803.462 62.6361 805.098 62.9997 807.099 62.9997C810.553 62.9997 813.341 61.7269 815.463 59.1814C817.584 56.5752 818.645 53.1205 818.645 48.8172V25.9071H827.19V59.7268C827.19 60.8784 827.221 62.3633 827.281 64.1816C827.342 65.9999 827.433 67.606 827.554 69H819.463ZM850.376 32.9983C851.467 30.6952 853.195 28.7557 855.558 27.1799C857.983 25.5434 860.831 24.7252 864.104 24.7252C867.013 24.7252 869.62 25.3919 871.923 26.7253C874.286 28.0587 876.135 30.2709 877.468 33.362C878.923 30.574 880.953 28.4527 883.56 26.9981C886.166 25.4828 889.014 24.7252 892.105 24.7252C894.893 24.7252 897.287 25.2101 899.288 26.1798C901.288 27.089 902.954 28.3314 904.288 29.9073C905.621 31.4831 906.591 33.3317 907.197 35.453C907.864 37.5743 908.197 39.8471 908.197 42.2715V69H899.651V45.0898C899.651 43.3321 899.5 41.6654 899.197 40.0896C898.894 38.5137 898.378 37.1197 897.651 35.9076C896.924 34.6954 895.954 33.7256 894.742 32.9983C893.53 32.271 891.984 31.9074 890.105 31.9074C888.166 31.9074 886.499 32.3316 885.105 33.1802C883.711 33.9681 882.56 35.0287 881.65 36.3621C880.802 37.6349 880.165 39.0895 879.741 40.726C879.378 42.3624 879.196 44.0291 879.196 45.7262V69H870.65V43.3624C870.65 41.6654 870.498 40.1199 870.195 38.7259C869.892 37.3319 869.377 36.15 868.65 35.1803C867.922 34.1499 866.983 33.362 865.831 32.8165C864.68 32.2104 863.256 31.9074 861.559 31.9074C858.407 31.9074 855.77 33.2105 853.649 35.8166C851.588 38.3622 850.558 41.7866 850.558 46.0898V69H842.012V35.1803C842.012 34.0287 841.982 32.5438 841.921 30.7255C841.861 28.9072 841.77 27.3011 841.649 25.9071H849.74C849.861 26.9981 849.952 28.2405 850.013 29.6345C850.073 30.9679 850.103 32.0892 850.103 32.9983H850.376Z" fill="black"/>
</svg>
