<svg width="1013" height="71" viewBox="0 0 1013 71" fill="none" xmlns="http://www.w3.org/2000/svg">
<path d="M28.2838 4.63338H38.1934L65.9219 69H52.8304L46.8301 54.272H18.9197L13.1013 69H0.28252L28.2838 4.63338ZM42.8299 44.4534L32.9204 18.2704L22.829 44.4534H42.8299ZM64.6669 25.3616H76.5765L88.0316 57.1813H88.2134L99.7594 25.3616H111.305L93.941 69H82.3041L64.6669 25.3616ZM148.552 42.817C148.552 41.423 148.34 40.0896 147.916 38.8168C147.552 37.544 146.946 36.4227 146.098 35.453C145.249 34.4832 144.158 33.7256 142.825 33.1802C141.552 32.5741 140.037 32.271 138.279 32.271C135.006 32.271 132.218 33.2711 129.915 35.2712C127.672 37.2106 126.43 39.7259 126.187 42.817H148.552ZM159.462 47.7263C159.462 48.2112 159.462 48.696 159.462 49.1809C159.462 49.6658 159.431 50.1506 159.371 50.6355H126.187C126.309 52.2113 126.703 53.666 127.369 54.9994C128.097 56.2721 129.036 57.3934 130.188 58.3631C131.339 59.2723 132.642 59.9996 134.097 60.5451C135.552 61.0905 137.067 61.3633 138.643 61.3633C141.37 61.3633 143.673 60.8784 145.552 59.9087C147.431 58.8783 148.976 57.4843 150.189 55.7267L157.462 61.5451C153.158 67.3636 146.916 70.2728 138.734 70.2728C135.339 70.2728 132.218 69.7576 129.369 68.7273C126.521 67.6363 124.036 66.1211 121.915 64.1816C119.854 62.2421 118.217 59.8784 117.005 57.0904C115.854 54.2417 115.278 51.0295 115.278 47.4535C115.278 43.9382 115.854 40.7563 117.005 37.9077C118.217 34.9984 119.854 32.5438 121.915 30.5437C123.975 28.483 126.4 26.9071 129.188 25.8162C132.036 24.6646 135.097 24.0888 138.37 24.0888C141.4 24.0888 144.188 24.604 146.734 25.6344C149.34 26.6041 151.583 28.089 153.461 30.0891C155.34 32.0286 156.795 34.4832 157.825 37.4531C158.916 40.3623 159.462 43.7867 159.462 47.7263ZM170.028 25.3616H180.392V32.3619H180.574C181.543 30.18 183.21 28.2708 185.574 26.6344C187.998 24.9374 190.847 24.0888 194.12 24.0888C196.968 24.0888 199.393 24.604 201.393 25.6344C203.453 26.6041 205.12 27.9072 206.393 29.5436C207.726 31.1801 208.696 33.0589 209.302 35.1803C209.908 37.3016 210.211 39.4835 210.211 41.726V69H199.302V44.8171C199.302 43.5443 199.211 42.2109 199.029 40.8169C198.847 39.4229 198.453 38.1804 197.847 37.0894C197.241 35.9379 196.392 34.9984 195.301 34.2711C194.271 33.5438 192.877 33.1802 191.119 33.1802C189.362 33.1802 187.847 33.5438 186.574 34.2711C185.301 34.9378 184.24 35.8166 183.392 36.9076C182.604 37.9986 181.998 39.2713 181.574 40.726C181.149 42.12 180.937 43.5443 180.937 44.9989V69H170.028V25.3616ZM223.124 25.3616H234.033V69H223.124V25.3616ZM221.578 10.5427C221.578 8.78509 222.215 7.26987 223.487 5.99708C224.821 4.66369 226.488 3.99699 228.488 3.99699C230.488 3.99699 232.155 4.63338 233.488 5.90617C234.882 7.11835 235.579 8.66387 235.579 10.5427C235.579 12.4216 234.882 13.9975 233.488 15.2702C232.155 16.4824 230.488 17.0885 228.488 17.0885C226.488 17.0885 224.821 16.4521 223.487 15.1793C222.215 13.8459 221.578 12.3004 221.578 10.5427ZM247.268 25.3616H257.723V32.6347H257.905C259.117 30.0891 260.814 28.0284 262.996 26.4526C265.178 24.8767 267.724 24.0888 270.633 24.0888C271.057 24.0888 271.512 24.1191 271.997 24.1797C272.482 24.1797 272.906 24.2403 273.27 24.3616V34.362C272.542 34.1802 271.906 34.059 271.36 33.9984C270.876 33.9378 270.391 33.9075 269.906 33.9075C267.421 33.9075 265.421 34.362 263.906 35.2712C262.39 36.1803 261.208 37.2713 260.36 38.544C259.511 39.8168 258.936 41.1199 258.633 42.4533C258.33 43.7867 258.178 44.8474 258.178 45.6353V69H247.268V25.3616ZM303.658 4.63338H318.841L348.751 52.8174H348.933V4.63338H360.388V69H345.842L315.295 19.2704H315.113V69H303.658V4.63338ZM404.779 42.817C404.779 41.423 404.566 40.0896 404.142 38.8168C403.778 37.544 403.172 36.4227 402.324 35.453C401.475 34.4832 400.384 33.7256 399.051 33.1802C397.778 32.5741 396.263 32.271 394.505 32.271C391.232 32.271 388.444 33.2711 386.141 35.2712C383.899 37.2106 382.656 39.7259 382.414 42.817H404.779ZM415.688 47.7263C415.688 48.2112 415.688 48.696 415.688 49.1809C415.688 49.6658 415.658 50.1506 415.597 50.6355H382.414C382.535 52.2113 382.929 53.666 383.596 54.9994C384.323 56.2721 385.262 57.3934 386.414 58.3631C387.566 59.2723 388.869 59.9996 390.323 60.5451C391.778 61.0905 393.293 61.3633 394.869 61.3633C397.596 61.3633 399.899 60.8784 401.778 59.9087C403.657 58.8783 405.203 57.4843 406.415 55.7267L413.688 61.5451C409.385 67.3636 403.142 70.2728 394.96 70.2728C391.566 70.2728 388.444 69.7576 385.596 68.7273C382.747 67.6363 380.262 66.1211 378.141 64.1816C376.08 62.2421 374.444 59.8784 373.232 57.0904C372.08 54.2417 371.504 51.0295 371.504 47.4535C371.504 43.9382 372.08 40.7563 373.232 37.9077C374.444 34.9984 376.08 32.5438 378.141 30.5437C380.202 28.483 382.626 26.9071 385.414 25.8162C388.263 24.6646 391.323 24.0888 394.596 24.0888C397.627 24.0888 400.415 24.604 402.96 25.6344C405.566 26.6041 407.809 28.089 409.688 30.0891C411.567 32.0286 413.021 34.4832 414.052 37.4531C415.143 40.3623 415.688 43.7867 415.688 47.7263ZM436.458 45.8171L420.73 25.3616H433.821L443.276 38.9077L453.004 25.3616H465.55L449.913 45.8171L467.732 69H454.458L443.094 53.0902L431.639 69H418.729L436.458 45.8171ZM467.923 34.0893V25.3616H475.56V12.7247H486.288V25.3616H497.198V34.0893H486.288V54.363C486.288 56.3024 486.621 57.9086 487.288 59.1814C488.015 60.4541 489.591 61.0905 492.016 61.0905C492.743 61.0905 493.531 61.0299 494.379 60.9087C495.228 60.7269 495.985 60.4845 496.652 60.1814L497.016 68.7273C496.046 69.0909 494.894 69.3637 493.561 69.5455C492.228 69.7879 490.955 69.9091 489.743 69.9091C486.833 69.9091 484.47 69.5152 482.651 68.7273C480.833 67.8787 479.379 66.7575 478.288 65.3635C477.257 63.9089 476.53 62.2724 476.106 60.4541C475.742 58.5753 475.56 56.5752 475.56 54.4539V34.0893H467.923ZM546.731 51.2719H524.912V41.9987H546.731V51.2719ZM580.216 4.63338H603.035C607.217 4.63338 611.429 5.17886 615.672 6.26982C619.914 7.36078 623.733 9.17904 627.127 11.7246C630.521 14.2096 633.279 17.5128 635.4 21.6342C637.521 25.695 638.582 30.7558 638.582 36.8167C638.582 42.4533 637.521 47.302 635.4 51.3628C633.279 55.4236 630.521 58.7571 627.127 61.3633C623.733 63.9695 619.914 65.9089 615.672 67.1817C611.429 68.3939 607.217 69 603.035 69H580.216V4.63338ZM601.217 58.9995C604.186 58.9995 607.156 58.6662 610.126 57.9995C613.096 57.2722 615.763 56.0903 618.126 54.4539C620.551 52.7568 622.521 50.484 624.036 47.6354C625.551 44.7868 626.309 41.1805 626.309 36.8167C626.309 32.2104 625.551 28.4527 624.036 25.5434C622.521 22.6342 620.551 20.3614 618.126 18.7249C615.763 17.0885 613.096 15.9672 610.126 15.3612C607.156 14.7551 604.186 14.452 601.217 14.452H591.671V58.9995H601.217ZM679.827 42.817C679.827 41.423 679.615 40.0896 679.19 38.8168C678.827 37.544 678.221 36.4227 677.372 35.453C676.524 34.4832 675.433 33.7256 674.099 33.1802C672.826 32.5741 671.311 32.271 669.554 32.271C666.281 32.271 663.493 33.2711 661.19 35.2712C658.947 37.2106 657.705 39.7259 657.462 42.817H679.827ZM690.736 47.7263C690.736 48.2112 690.736 48.696 690.736 49.1809C690.736 49.6658 690.706 50.1506 690.645 50.6355H657.462C657.583 52.2113 657.977 53.666 658.644 54.9994C659.371 56.2721 660.311 57.3934 661.462 58.3631C662.614 59.2723 663.917 59.9996 665.372 60.5451C666.826 61.0905 668.341 61.3633 669.917 61.3633C672.645 61.3633 674.948 60.8784 676.827 59.9087C678.705 58.8783 680.251 57.4843 681.463 55.7267L688.736 61.5451C684.433 67.3636 678.19 70.2728 670.008 70.2728C666.614 70.2728 663.493 69.7576 660.644 68.7273C657.795 67.6363 655.31 66.1211 653.189 64.1816C651.128 62.2421 649.492 59.8784 648.28 57.0904C647.128 54.2417 646.552 51.0295 646.552 47.4535C646.552 43.9382 647.128 40.7563 648.28 37.9077C649.492 34.9984 651.128 32.5438 653.189 30.5437C655.25 28.483 657.674 26.9071 660.462 25.8162C663.311 24.6646 666.372 24.0888 669.644 24.0888C672.675 24.0888 675.463 24.604 678.008 25.6344C680.615 26.6041 682.857 28.089 684.736 30.0891C686.615 32.0286 688.07 34.4832 689.1 37.4531C690.191 40.3623 690.736 43.7867 690.736 47.7263ZM753.395 24.0888C756.244 24.0888 758.668 24.604 760.669 25.6344C762.729 26.6041 764.396 27.9072 765.669 29.5436C767.002 31.1801 767.972 33.0589 768.578 35.1803C769.184 37.3016 769.487 39.4835 769.487 41.726V69H758.578V44.8171C758.578 43.5443 758.487 42.2109 758.305 40.8169C758.123 39.4229 757.729 38.1804 757.123 37.0894C756.517 35.9379 755.668 34.9984 754.577 34.2711C753.547 33.5438 752.153 33.1802 750.395 33.1802C748.698 33.1802 747.244 33.5438 746.032 34.2711C744.819 34.9984 743.819 35.9379 743.031 37.0894C742.243 38.241 741.668 39.5441 741.304 40.9987C740.94 42.3927 740.759 43.7867 740.759 45.1807V69H729.849V42.6351C729.849 39.9077 729.182 37.6652 727.849 35.9076C726.576 34.0893 724.546 33.1802 721.758 33.1802C720.121 33.1802 718.697 33.5438 717.485 34.2711C716.273 34.9378 715.273 35.8166 714.485 36.9076C713.757 37.9986 713.182 39.2713 712.757 40.726C712.394 42.12 712.212 43.5443 712.212 44.9989V69H701.302V25.3616H711.666V32.3619H711.848C712.333 31.271 712.969 30.2406 713.757 29.2709C714.606 28.3011 715.576 27.4223 716.667 26.6344C717.818 25.8465 719.121 25.2404 720.576 24.8161C722.03 24.3313 723.637 24.0888 725.394 24.0888C728.788 24.0888 731.607 24.8464 733.849 26.3617C736.092 27.8769 737.819 29.877 739.031 32.3619C740.486 29.6951 742.425 27.6648 744.85 26.2707C747.274 24.8161 750.123 24.0888 753.395 24.0888ZM782.365 25.3616H793.275V69H782.365V25.3616ZM780.819 10.5427C780.819 8.78509 781.456 7.26987 782.729 5.99708C784.062 4.66369 785.729 3.99699 787.729 3.99699C789.729 3.99699 791.396 4.63338 792.729 5.90617C794.123 7.11835 794.82 8.66387 794.82 10.5427C794.82 12.4216 794.123 13.9975 792.729 15.2702C791.396 16.4824 789.729 17.0885 787.729 17.0885C785.729 17.0885 784.062 16.4521 782.729 15.1793C781.456 13.8459 780.819 12.3004 780.819 10.5427ZM829.783 4.63338H854.875C857.3 4.63338 859.694 4.93643 862.057 5.54252C864.421 6.088 866.512 7.02743 868.33 8.36082C870.209 9.63361 871.725 11.3004 872.876 13.3611C874.028 15.4218 874.604 17.9067 874.604 20.8159C874.604 24.4525 873.573 27.4526 871.512 29.8164C869.452 32.1801 866.755 33.8772 863.421 34.9075V35.0893C867.482 35.6348 870.815 37.2106 873.422 39.8168C876.028 42.423 877.331 45.908 877.331 50.2719C877.331 53.7872 876.634 56.757 875.24 59.1814C873.846 61.5451 871.997 63.4543 869.694 64.9089C867.452 66.3635 864.845 67.4242 861.876 68.0909C858.966 68.697 855.997 69 852.966 69H829.783V4.63338ZM841.238 30.8164H851.421C855.239 30.8164 858.148 30.0588 860.148 28.5436C862.148 27.0284 863.148 24.8767 863.148 22.0887C863.148 19.1795 862.118 17.1188 860.057 15.9066C857.997 14.6945 854.784 14.0884 850.421 14.0884H841.238V30.8164ZM841.238 59.3632H851.512C852.966 59.3632 854.542 59.2723 856.239 59.0904C857.936 58.848 859.482 58.3934 860.876 57.7268C862.33 57.0601 863.512 56.0903 864.421 54.8175C865.391 53.5447 865.876 51.8477 865.876 49.7264C865.876 46.3323 864.724 43.9685 862.421 42.6351C860.118 41.3017 856.633 40.635 851.966 40.635H841.238V59.3632ZM885.555 46.999C885.555 43.5443 886.161 40.4229 887.373 37.6349C888.646 34.7863 890.343 32.3619 892.464 30.3618C894.586 28.3618 897.101 26.8162 900.01 25.7253C902.919 24.6343 906.011 24.0888 909.283 24.0888C912.556 24.0888 915.647 24.6343 918.557 25.7253C921.466 26.8162 923.981 28.3618 926.102 30.3618C928.224 32.3619 929.89 34.7863 931.103 37.6349C932.375 40.4229 933.012 43.5443 933.012 46.999C933.012 50.4537 932.375 53.6053 931.103 56.454C929.89 59.3026 928.224 61.7572 926.102 63.8179C923.981 65.818 921.466 67.3939 918.557 68.5454C915.647 69.697 912.556 70.2728 909.283 70.2728C906.011 70.2728 902.919 69.697 900.01 68.5454C897.101 67.3939 894.586 65.818 892.464 63.8179C890.343 61.7572 888.646 59.3026 887.373 56.454C886.161 53.6053 885.555 50.4537 885.555 46.999ZM896.646 46.999C896.646 48.696 896.889 50.3931 897.374 52.0901C897.919 53.7872 898.707 55.3024 899.738 56.6358C900.768 57.9692 902.071 59.0601 903.647 59.9087C905.223 60.7572 907.102 61.1815 909.283 61.1815C911.465 61.1815 913.344 60.7572 914.92 59.9087C916.496 59.0601 917.799 57.9692 918.829 56.6358C919.86 55.3024 920.617 53.7872 921.102 52.0901C921.648 50.3931 921.92 48.696 921.92 46.999C921.92 45.3019 921.648 43.6352 921.102 41.9987C920.617 40.3017 919.86 38.7865 918.829 37.4531C917.799 36.1197 916.496 35.059 914.92 34.2711C913.344 33.4226 911.465 32.9983 909.283 32.9983C907.102 32.9983 905.223 33.4226 903.647 34.2711C902.071 35.059 900.768 36.1197 899.738 37.4531C898.707 38.7865 897.919 40.3017 897.374 41.9987C896.889 43.6352 896.646 45.3019 896.646 46.999ZM943.772 0.269542H954.681V69H943.772V0.269542ZM1012.28 69H1001.92V62.4542H1001.74C1000.22 64.9998 998.099 66.9393 995.372 68.2727C992.705 69.6061 989.826 70.2728 986.735 70.2728C983.402 70.2728 980.402 69.6667 977.735 68.4545C975.129 67.1817 972.886 65.515 971.007 63.4543C969.189 61.333 967.765 58.8783 966.734 56.0903C965.765 53.2417 965.28 50.2113 965.28 46.999C965.28 43.7867 965.795 40.7866 966.825 37.9986C967.856 35.2106 969.31 32.7862 971.189 30.7255C973.068 28.6648 975.31 27.0587 977.917 25.9071C980.523 24.6949 983.371 24.0888 986.462 24.0888C988.463 24.0888 990.25 24.3313 991.826 24.8161C993.402 25.2404 994.766 25.7859 995.917 26.4526C997.13 27.1193 998.16 27.8466 999.008 28.6345C999.857 29.4224 1000.55 30.18 1001.1 30.9073H1001.37V0.269542H1012.28V69ZM976.371 46.999C976.371 48.696 976.613 50.3931 977.098 52.0901C977.644 53.7872 978.432 55.3024 979.462 56.6358C980.492 57.9692 981.796 59.0601 983.371 59.9087C984.947 60.7572 986.796 61.1815 988.917 61.1815C990.917 61.1815 992.705 60.7875 994.281 59.9996C995.857 59.1511 997.19 58.0601 998.281 56.7267C999.433 55.3933 1000.28 53.9084 1000.83 52.272C1001.43 50.5749 1001.74 48.8779 1001.74 47.1808C1001.74 45.4838 1001.43 43.7867 1000.83 42.0897C1000.28 40.3926 999.433 38.8774 998.281 37.544C997.19 36.2106 995.857 35.1196 994.281 34.2711C992.705 33.4226 990.917 32.9983 988.917 32.9983C986.796 32.9983 984.947 33.4226 983.371 34.2711C981.796 35.059 980.492 36.1197 979.462 37.4531C978.432 38.7865 977.644 40.3017 977.098 41.9987C976.613 43.6352 976.371 45.3019 976.371 46.999Z" fill="black"/>
</svg>
